# xmcd CD database file
#
# Track frame offsets:
#	150
#	25357
#	42146
#	61683
#	70484
#	93733
#	120595
#	146941
#	163865
#	182250
#	192283
#	216702
#	246834
#
# Disc length: 4440 seconds
#
# Revision: 0
# Processed by: cddbd v1.4PL0 Copyright (c) Steve Scherf et al.
# Submitted via: CDex 1.50
#
DISCID=c511560d
DTITLE=David Lanz - The Symphonic Session
DYEAR=2003
DGENRE=New Age
TTITLE0=Night In White Satin
TTITLE1=Sitting In An English Garden
TTITLE2=Vesuvius
TTITLE3=Prelude: The Approaching Night
TTITLE4=Nocturne
TTITLE5=Cristofori's Dream
TTITLE6=Water From The Moon
TTITLE7=Girl
TTITLE8=Where the Tall Tree Grows
TTITLE9=Prelude to the Dance
TTITLE10=The Setting of Two Suns
TTITLE11=Firedance
TTITLE12=Data: player
EXTD=YEAR: 2003
EXTT0=
EXTT1=
EXTT2=
EXTT3=
EXTT4=
EXTT5=
EXTT6=
EXTT7=
EXTT8=
EXTT9=
EXTT10=
EXTT11=
EXTT12=
PLAYORDER=
